<?xml version="1.0" encoding="utf-8"?>
<!-- Generator: Adobe Illustrator 18.0.0, SVG Export Plug-In . SVG Version: 6.00 Build 0)  -->
<!DOCTYPE svg PUBLIC "-//W3C//DTD SVG 1.1//EN" "http://www.w3.org/Graphics/SVG/1.1/DTD/svg11.dtd">
<svg version="1.1" id="Слой_1" xmlns="http://www.w3.org/2000/svg" xmlns:xlink="http://www.w3.org/1999/xlink" x="0px" y="0px"
	 viewBox="0 0 717 659" enable-background="new 0 0 717 659" xml:space="preserve">
<g>
	<g>
		<path fill="#FFFFFF" d="M500,658.9l-122.8-179l-28.8-12.5L266.5,478l-3.6-1.2c-0.3-0.1-28.4-9.2-56.4-18.6
			c-16.5-5.5-29.7-10.1-39.3-13.5c-17.6-6.3-24.1-8.6-27.6-15.6c-2.6-4.1-17.6-25.2-31.6-44.3L34,323l-33-53.4l21.7-101.4L67,90.9
			l107.7-60.5l84.7-30.1L421,17.5l103.4,44.9l83.4,51.9l2,2.8c28.5,41,75,107.6,80.4,114.6c3.1,3.5,4.5,7.5,8.4,23.4
			c2,8.2,4.6,19.5,7.7,33.4c5.2,23.6,10.2,47.2,10.2,47.4l0.8,3.6l-26.5,115.5l-68.7,4.8l-71.5,56.6L507.9,501L500,658.9z
			 M353.3,432.9l46.1,20l71.9,104.8l5.2-103.8l68,24.7l64.9-51.4l54.3-3.8l19.3-84c-7.9-37.6-17.1-78.4-20-88
			c-3.8-5.1-13.4-18.5-40.9-57.9c-16.2-23.1-32.3-46.3-37.8-54.2l-75.4-46.9l-96.4-41.8L263.4,34.5l-74.8,26.6l-97.1,54.6l-37,64.6
			l-17.8,83.1l23,37.3l73,61.1l1.2,1.7c19.5,26.8,28.2,39.1,32.2,45.1c13,5.3,60,21.1,103.4,35.2L353.3,432.9z M168.9,412.7
			c0.3,0.4,0.4,0.8,0.6,1C169.3,413.3,169.1,413,168.9,412.7z"/>
	</g>
	<g>
		<path fill="#FFFFFF" d="M487,485.2l-68.9-86.3c-25.8,24.8-58.6,47.3-61.7,51.2c-4.1,6.3-9.8,4.6-10.9,4.2
			c-7.4-2.7-6.2-11.5-5.6-16.2l4.2,0.6c2.7-3.1,68.9-58.1,69-58.3l6.6-6.4l80.4,100.7L487,485.2z M344.9,438.8l8.8,1.2l-5.5-0.8
			l5.5,0.8c-0.9-0.8-2-1.4-3.3-1.7C348.3,437.8,346.4,438.1,344.9,438.8z"/>
	</g>
	<g>
		<path fill="#FFFFFF" d="M422.4,399.9c-1.3,0-2.6-0.3-3.8-0.9c-1.5-0.7-4.9-3-4.9-8.4l16.8,0c0-2.4-2-6.3-6.4-7.3
			c-4.3-1-7.8,1.7-8.9,3.8c3.5-7.3,21.2-71,22.4-82.7c-4.8-9.1-32.8-55.2-50.4-83.7l-2-3.3l23.9-76l86.5-76.9L507,77l-83,73.8
			l-20.2,64.3c4.1,6.7,13.9,22.6,23.6,38.6c26.4,43.6,26.7,45.1,27.1,47.2c0.4,2,1.2,6.2-9.7,50.5c-2.8,11.3-7.1,20-9.4,28
			c-4.2,14.9-5.3,16.8-7.8,18.6C426.1,399.3,424.3,399.9,422.4,399.9z"/>
	</g>
	<g>
		<path fill="#FFFFFF" d="M443.7,309c-2,0-3.7-0.4-5.3-1.6l9.5-13.9c-2.2-1.5-4.2-1.4-4.3-1.4c6.7-0.5,46.2-10.5,94.1-25.2
			l79.3-92.4l13.5,10.1l-82.6,96.8l-2.6,0.8c-0.3,0.1-13.9,3.1-41.7,11.2c-16.3,4.8-29.5,8.5-39.1,11.1c-5.8,1.5-10.4,2.7-13.7,3.4
			C447.9,308.5,445.7,309,443.7,309z"/>
	</g>
	<g>
		<path fill="#FFFFFF" d="M598.6,443.9L572,341.6c-12.2-21.9-31.2-53.5-35.8-57.5c0,0-8.5-9.7-6.5-9.5l11.6-6
			c4.4,0.5,7.6,3.5,14.3,13.3c3.5,5.2,8.1,12.4,13.4,21.3c9.3,15.6,18,31,18.1,31.1l0.5,0.9l27.1,104.3L598.6,443.9z"/>
	</g>
	<g>
		<path fill="#FFFFFF" d="M585.4,345.6L585.4,345.6l-2.4-16.7c6.7-1,80.8,0.7,103.3,1.3L686,347C650.1,346.1,591,345,585.4,345.6z"
			/>
	</g>
	<g>
		<path fill="#FFFFFF" d="M499.7,467.9c0.1-0.2,0.2-0.3,0.2-0.4l-15.4-6.8c0.6-1.4,1.5-3.4,44.1-65.2c20.8-30.2,41.7-60.3,41.9-60.6
			l13.8,9.6C551.9,391.1,502.7,462.5,499.7,467.9z"/>
	</g>
	<g>
		<path fill="#FFFFFF" d="M121.9,250.5l-81.1-51.8l9.1-14.2l75.9,48.5l146.7-17.1l0.4,0c11.1-0.4,109-8.6,119.9-7.8l7.7,17.4
			c-7.5-0.5-83.3,5.6-126.6,7.2L121.9,250.5z"/>
	</g>
	<g>
		<path fill="#FFFFFF" d="M268.9,222.5l-16.5-3c-0.1,0.6-0.1,1.1-0.1,1.1c0-2.9-3.3-24.8-6.1-43.1c-1.7-11.4-3.5-23.3-4.8-32.2
			c-1.1-7.6-1.7-12.1-1.8-15.1c-4.6-8.3-30-46.4-52.9-79.9l13.9-9.5c0.1,0.2,14.1,20.6,27.7,41c8,12,14.4,21.6,18.9,28.7
			c2.7,4.2,4.8,7.6,6.2,9.9c1.6,2.8,3.6,6.1,3.1,9.6c0.4,5.2,3.8,28.1,6.4,45C268.9,215.7,269.4,219.8,268.9,222.5z"/>
	</g>
	<g>
		<path fill="#FFFFFF" d="M166.3,423.1l-14-9.4l51.8-77.2c17.4-44.7,48.7-118.3,50.2-125.7c0,0.2,0.7,3.5,1.2,5.3l11.7-3.5
			c0.9,2.9,0.2,5.3-1.8,11.5c-1.2,3.6,0.4,2.8-2,9.3c-3.9,10.8-42.7,106.9-42.8,107.2l-1.5,3.7L166.3,423.1z"/>
	</g>
	<g>
		<path fill="#FFFFFF" d="M259.8,461.8l-7.8-14.9c-1.1,0.6-1.7,1.3-1.7,1.3c3.8-4.3,25-42.7,44-78.4c-2.7-9.7-11-39.9-19.1-69.9
			c-5.8-21.2-10.4-38.2-13.6-50.4c-1.9-7.3-3.4-12.9-4.4-16.7c-0.5-2.1-0.9-3.7-1.2-4.9c-0.2-0.7-0.3-1.2-0.3-1.6
			c-1.1-5.8,2.7-8.5,3.9-9.2l5.5-3.3l4.6,4.4l-11.6,12.2l5.8-6.1l4,7.4c3.5-1.9,4.8-5.7,4.3-8.5c1.1,5.8,24,90.1,39.2,145.4l0.9,3.2
			l-1.6,2.9c-0.1,0.2-10.9,20.6-22.1,41.1C264.7,459.2,262.7,460.3,259.8,461.8z"/>
	</g>
	<g>
		<path fill="#FFFFFF" d="M308.7,377.1c0.1-0.1,0.8-0.6,1.5-1.6l-14-9.4c1.9-2.9,143-70.9,144.5-71.9c-3.1,1.9-4.3,3.1-2.3,7.3
			l6.8-0.3l-2.8-7.9l10.5,4.5c1.2,2.6,1.6,7.8-4,11.1c-0.4,0.2-1,0.6-1.9,1.1c-1.5,0.9-3.8,2.1-6.6,3.7
			C434.7,316.8,314,373.1,308.7,377.1z"/>
	</g>
	<g>
		<path fill="#FFFFFF" d="M410.9,154.4c-56.2-9.8-148.4-25.5-156.5-25.5c0,0,0.6,0,1.5-0.2L243.1,110c2.6-0.7,13.5,1.1,93.3,14.6
			c38.6,6.5,77.1,13.2,77.4,13.3L410.9,154.4z"/>
	</g>
	<g>
		<path fill="#FFFFFF" d="M408.9,144.7c-4.5-5.1-49.7-39-82.7-63.7c-56.1-42-66.3-50-68.5-53.3l14-9.3c-0.3-0.5-0.6-0.7-0.6-0.7
			c3.6,3.7,36.3,28.2,65.1,49.8c20.5,15.4,41.7,31.3,57.9,43.7c8.8,6.7,15.2,11.8,19.7,15.5c2.6,2.1,4.5,3.8,5.8,5
			c1.8,1.7,5.9,5.5,3.9,11.1l-15.8-5.6C406.7,140.4,407.9,143.4,408.9,144.7z"/>
	</g>
	<g>
		<path fill="#FFFFFF" d="M529.8,274.6l-22.4-81.5c-38.9,10.8-101.4,28-106.9,30.4c0.1,0,1.3-1.6,2-2.2l-4.6-13.2
			c1.9-1.5,3.2-2.6,59.1-18.4c26.8-7.6,53.6-15,53.9-15.1l8.1-2.2l26.9,97.7L529.8,274.6z"/>
	</g>
	<g>
		<path fill="#FFFFFF" d="M511,191.8l-3.3-16.5c-1.5,0.3-2.4,1-2.5,1c5.2-3.7,43.2-44,68.5-71.4l12.4,11.4
			c-0.2,0.2-16.9,18.3-33.9,36.2C516.1,190.8,514.4,191.1,511,191.8z"/>
	</g>
	<g>
		<path fill="#FFFFFF" d="M146.5,409.9l-1.9-98.5c-11.5-29.7-24.8-62.4-27.8-67c-3-3.7-2.8-8.1,0.7-22.9c1.9-7.8,4.7-18.3,8.4-31.2
			c6.3-21.9,13.1-43.6,13.1-43.9l1.3-4.2l95.6-30.1l5.1,16l-87.2,27.5c-10.6,34.2-21.1,71.5-22.2,80.8c2,3.6,6.1,12.4,16,36.8
			c6.8,16.9,13.1,33.3,13.2,33.5l0.5,1.4l2,101.5L146.5,409.9z"/>
	</g>
	<g>
		<path fill="#FFFFFF" d="M138.7,152.4c-2.7-2.4-35-27.4-54.7-42.6l10.3-13.3c5.3,4.1,51.6,39.7,55.7,43.4L138.7,152.4z"/>
	</g>
	<g>
		<path fill="#FFFFFF" stroke="#FFFFFF" stroke-width="30" stroke-miterlimit="10" d="M216.4,347.5"/>
	</g>
</g>
</svg>
