<?xml version="1.0" encoding="UTF-8" standalone="no"?>
<svg
   xmlns:dc="http://purl.org/dc/elements/1.1/"
   xmlns:cc="http://creativecommons.org/ns#"
   xmlns:rdf="http://www.w3.org/1999/02/22-rdf-syntax-ns#"
   xmlns:svg="http://www.w3.org/2000/svg"
   xmlns="http://www.w3.org/2000/svg"
   xmlns:sodipodi="http://sodipodi.sourceforge.net/DTD/sodipodi-0.dtd"
   xmlns:inkscape="http://www.inkscape.org/namespaces/inkscape"
   width="461px"
   height="126px"
   viewBox="0 0 461 126"
   version="1.1"
   id="svg4241"
   inkscape:version="0.91 r13725"
   sodipodi:docname="hotbox.svg">
  <metadata
     id="metadata4274">
    <rdf:RDF>
      <cc:Work
         rdf:about="">
        <dc:format>image/svg+xml</dc:format>
        <dc:type
           rdf:resource="http://purl.org/dc/dcmitype/StillImage" />
      </cc:Work>
    </rdf:RDF>
  </metadata>
  <sodipodi:namedview
     pagecolor="#ffffff"
     bordercolor="#666666"
     borderopacity="1"
     objecttolerance="10"
     gridtolerance="10"
     guidetolerance="10"
     inkscape:pageopacity="0"
     inkscape:pageshadow="2"
     inkscape:window-width="1093"
     inkscape:window-height="668"
     id="namedview4272"
     showgrid="false"
     inkscape:zoom="0.9197397"
     inkscape:cx="216.36557"
     inkscape:cy="63"
     inkscape:window-x="0"
     inkscape:window-y="0"
     inkscape:window-maximized="0"
     inkscape:current-layer="Page-1" />
  <!-- Generator: Sketch 41.2 (35397) - http://www.bohemiancoding.com/sketch -->
  <title
     id="title4243">HotBox_Logo (1)</title>
  <desc
     id="desc4245">Created with Sketch.</desc>
  <defs
     id="defs4247" />
  <g
     id="Page-1"
     stroke="none"
     stroke-width="1"
     fill="none"
     fill-rule="evenodd">
    <g
       id="HotBox_Logo-(1)">
      <g
         id="Group"
         transform="translate(316.000000, 41.000000)"
         fill="#000000">
        <path
           d="M29.022,49.656 C38.454,49.656 43.134,43.608 43.134,36.624 C43.134,30.576 39.102,25.68 33.99,24.888 C38.526,23.88 42.198,19.848 42.198,13.872 C42.198,7.824 37.662,1.632 28.158,1.632 L0.942,1.632 L0.942,49.656 L29.022,49.656 Z M25.35,20.064 L13.326,20.064 L13.326,12.072 L25.35,12.072 C27.87,12.072 29.598,13.728 29.598,16.032 C29.598,18.408 27.87,20.064 25.35,20.064 L25.35,20.064 L25.35,20.064 Z M25.782,39.216 L13.326,39.216 L13.326,30.576 L25.782,30.576 C28.806,30.576 30.534,32.52 30.534,34.896 C30.534,37.488 28.734,39.216 25.782,39.216 Z"
           id="Shape"
           style="fill:#ffffff" />
        <path
           d="M72.215,50.52 C86.903,50.52 97.847,40.296 97.847,25.68 C97.847,11.064 86.903,0.84 72.215,0.84 C57.527,0.84 46.511,11.064 46.511,25.68 C46.511,40.296 57.527,50.52 72.215,50.52 Z M72.215,39.576 C64.223,39.576 59.111,33.456 59.111,25.68 C59.111,17.832 64.223,11.784 72.215,11.784 C80.135,11.784 85.247,17.832 85.247,25.68 C85.247,33.456 80.135,39.576 72.215,39.576 Z"
           id="path4253"
           style="fill:#ffffff" />
        <polygon
           id="polygon4255"
           points="144.473 49.656 127.769 24.96 143.393 1.632 128.705 1.632 119.417 16.68 109.985 1.632 95.369 1.632 111.065 25.032 94.289 49.656 108.977 49.656 119.417 33.528 129.857 49.656"
           style="fill:#ffffff" />
      </g>
      <g
         id="g4257"
         transform="translate(151.000000, 41.000000)"
         fill="#000000">
        <polygon
           id="polygon4259"
           points="44.899 49.656 44.899 1.632 32.515 1.632 32.515 19.56 12.571 19.56 12.571 1.632 0.187 1.632 0.187 49.656 12.571 49.656 12.571 30.36 32.515 30.36 32.515 49.656"
           style="fill:#ffffff;fill-opacity:1" />
        <path
           d="M76.119,50.52 C90.807,50.52 101.751,40.296 101.751,25.68 C101.751,11.064 90.807,0.84 76.119,0.84 C61.431,0.84 50.415,11.064 50.415,25.68 C50.415,40.296 61.431,50.52 76.119,50.52 L76.119,50.52 L76.119,50.52 Z M76.119,39.576 C68.127,39.576 63.015,33.456 63.015,25.68 C63.015,17.832 68.127,11.784 76.119,11.784 C84.039,11.784 89.151,17.832 89.151,25.68 C89.151,33.456 84.039,39.576 76.119,39.576 L76.119,39.576 L76.119,39.576 Z"
           id="path4261"
           style="fill:#ffffff" />
        <polygon
           id="polygon4263"
           points="128.212 49.656 128.212 12.432 141.604 12.432 141.604 1.632 102.364 1.632 102.364 12.432 115.828 12.432 115.828 49.656"
           style="fill:#ffffff" />
      </g>
      <g
         id="Group-2"
         transform="translate(59.000000, 63.000000) scale(-1, 1) translate(-59.000000, -63.000000) ">
        <path
           d="M34.875,37.623 C34.866,38.434 34.848,39.244 34.814,40.054 C34.731,41.998 34.569,43.939 34.326,45.869 C33.592,51.707 32.125,57.45 29.968,62.924 C29.483,64.155 28.964,65.372 28.411,66.573 C28.308,66.796 27.967,67.526 27.898,67.671 C27.829,67.813 27.76,67.955 27.687,68.095 C27.468,68.515 27.222,68.92 26.95,69.308 C26.135,70.472 25.094,71.474 23.9,72.244 C22.839,72.929 21.66,73.428 20.43,73.714 C19.354,73.964 18.241,74.051 17.139,73.971 C15.564,73.856 14.018,73.398 12.635,72.637 C11.112,71.799 9.798,70.599 8.825,69.159 C8.206,68.243 7.727,67.235 7.408,66.177 C6.814,64.209 6.786,62.087 7.327,60.104 C7.451,59.647 7.606,59.198 7.788,58.761 C7.984,58.291 8.212,57.834 8.427,57.371 C8.569,57.06 8.569,57.06 8.709,56.747 C9.121,55.811 9.509,54.865 9.864,53.905 C10.607,51.898 11.216,49.841 11.687,47.754 C12.449,44.374 12.848,40.914 12.876,37.449 C12.904,33.875 12.535,30.299 11.781,26.806 C11.233,24.274 10.482,21.787 9.538,19.375 C9.077,18.197 8.566,17.041 8.019,15.901 L7.83,15.483 C7.657,15.057 7.657,15.057 7.503,14.625 L7.503,14.624 C7.456,14.474 7.407,14.324 7.363,14.172 C7.276,13.869 7.203,13.562 7.142,13.252 C6.87,11.857 6.872,10.412 7.146,9.018 C7.36,7.934 7.738,6.883 8.264,5.912 C9.015,4.523 10.067,3.302 11.33,2.353 C12.592,1.404 14.058,0.733 15.601,0.397 C16.526,0.196 17.477,0.115 18.423,0.157 C19.843,0.219 21.247,0.56 22.538,1.154 C23.829,1.748 25.001,2.593 25.971,3.631 C26.726,4.438 27.358,5.358 27.839,6.353 C27.977,6.637 28.102,6.927 28.215,7.222 C28.271,7.369 28.321,7.519 28.374,7.667 L28.161,7.027 L28.056,6.806 C28.13,6.959 28.196,7.102 28.269,7.256 C28.893,8.607 29.483,9.972 30.025,11.357 C31.1,14.104 32.003,16.918 32.726,19.777 C33.643,23.402 34.27,27.101 34.601,30.826 C34.715,32.117 34.794,33.412 34.838,34.708 C34.859,35.355 34.87,36.003 34.876,36.65 C34.877,36.975 34.877,37.299 34.875,37.623 L34.875,37.623 L34.875,37.623 Z M76.03,37.495 C76.019,38.63 75.989,39.763 75.928,40.896 C75.805,43.163 75.573,45.425 75.232,47.67 C74.211,54.395 72.211,60.965 69.314,67.119 L69.31,67.132 L69.21,67.34 L69.314,67.119 L69.528,66.478 L69.369,66.924 C69.309,67.07 69.253,67.218 69.19,67.363 C69.065,67.652 68.928,67.937 68.778,68.214 C68.254,69.187 67.583,70.08 66.794,70.853 C65.78,71.848 64.573,72.643 63.258,73.181 C62.089,73.659 60.838,73.934 59.577,73.989 C58.631,74.031 57.68,73.95 56.755,73.749 C55.211,73.413 53.746,72.742 52.483,71.793 C51.221,70.844 50.169,69.623 49.418,68.234 C48.892,67.262 48.514,66.212 48.3,65.128 C48.025,63.734 48.024,62.288 48.296,60.894 C48.356,60.584 48.43,60.277 48.517,59.973 C48.56,59.822 48.61,59.672 48.657,59.521 C48.794,59.137 48.822,59.038 48.983,58.663 C49.139,58.301 49.316,57.948 49.484,57.591 C49.579,57.384 49.674,57.177 49.768,56.97 C50.23,55.932 50.662,54.883 51.054,53.817 C51.791,51.81 52.396,49.754 52.862,47.668 C53.617,44.288 54.01,40.828 54.03,37.365 C54.051,33.79 53.676,30.213 52.914,26.72 C52.361,24.187 51.604,21.699 50.653,19.286 C50.362,18.546 50.051,17.812 49.723,17.086 C49.531,16.661 49.331,16.239 49.133,15.817 L48.942,15.384 C48.884,15.237 48.823,15.091 48.769,14.943 C48.66,14.647 48.564,14.346 48.48,14.042 C48.148,12.823 48.028,11.549 48.126,10.29 C48.236,8.873 48.624,7.481 49.261,6.211 C49.97,4.8 50.984,3.547 52.217,2.56 C52.956,1.968 53.771,1.472 54.637,1.089 C55.647,0.641 56.724,0.347 57.822,0.22 C59.076,0.074 60.354,0.146 61.584,0.432 C62.968,0.754 64.287,1.346 65.447,2.167 C66.477,2.896 67.38,3.804 68.104,4.838 C68.376,5.226 68.622,5.632 68.841,6.051 C68.915,6.191 68.983,6.333 69.052,6.475 C69.118,6.613 69.464,7.354 69.564,7.572 C70.118,8.775 70.638,9.992 71.123,11.223 C73.219,16.546 74.665,22.122 75.418,27.793 C75.674,29.723 75.85,31.664 75.946,33.608 C75.994,34.579 76.018,35.551 76.029,36.523 C76.03,36.847 76.031,37.171 76.03,37.495 L76.03,37.495 L76.03,37.495 Z M117.183,37.623 C117.172,38.595 117.147,39.567 117.1,40.538 C117.012,42.32 116.857,44.098 116.634,45.868 C115.901,51.706 114.433,57.449 112.276,62.923 C111.791,64.154 111.272,65.371 110.719,66.572 C110.615,66.797 110.275,67.524 110.205,67.672 C110.136,67.814 110.068,67.956 109.994,68.096 C109.775,68.516 109.529,68.921 109.257,69.309 C108.442,70.473 107.401,71.475 106.207,72.245 C105.145,72.929 103.967,73.428 102.737,73.714 C101.66,73.964 100.547,74.051 99.445,73.971 C97.712,73.844 96.017,73.302 94.532,72.399 C93.182,71.579 92.016,70.466 91.132,69.158 C90.513,68.242 90.034,67.234 89.715,66.176 C89.121,64.208 89.093,62.085 89.635,60.103 C89.759,59.646 89.914,59.197 90.096,58.76 C90.292,58.29 90.52,57.834 90.734,57.372 C90.83,57.164 90.924,56.955 91.017,56.746 C91.429,55.81 91.817,54.865 92.171,53.906 C92.953,51.793 93.587,49.626 94.068,47.425 C94.807,44.041 95.181,40.578 95.185,37.115 C95.188,33.653 94.82,30.191 94.088,26.807 C93.541,24.275 92.79,21.788 91.846,19.376 C91.556,18.636 91.248,17.902 90.923,17.177 C90.743,16.776 90.553,16.381 90.367,15.984 C90.354,15.956 90.42,16.093 90.408,16.065 C90.341,15.922 90.273,15.78 90.205,15.637 L90.021,15.201 C89.966,15.053 89.908,14.907 89.856,14.758 C89.752,14.46 89.662,14.157 89.584,13.851 C89.273,12.627 89.176,11.351 89.297,10.094 C89.433,8.679 89.845,7.294 90.505,6.036 C91.239,4.637 92.275,3.403 93.525,2.438 C94.275,1.859 95.099,1.378 95.972,1.01 C96.99,0.581 98.072,0.307 99.172,0.199 C100.428,0.075 101.705,0.17 102.93,0.478 C104.308,0.825 105.615,1.441 106.76,2.282 C107.905,3.124 108.883,4.187 109.626,5.399 C109.834,5.739 109.9,5.873 110.085,6.227 C110.184,6.417 110.272,6.613 110.365,6.807 C110.578,7.255 110.786,7.706 110.99,8.16 C111.464,9.214 111.911,10.28 112.333,11.356 C114.416,16.679 115.849,22.254 116.59,27.922 C116.842,29.852 117.014,31.792 117.106,33.736 C117.144,34.545 117.166,35.354 117.179,36.164 C117.184,36.651 117.185,37.137 117.183,37.623 L117.183,37.623 L117.183,37.623 Z"
           id="path4266"
           fill="#FFCD44" />
        <path
           d="M28.888,115.233759 C28.879,115.391759 28.874,115.549759 28.861,115.706759 C28.837,116.021759 28.799,116.334759 28.748,116.646759 C28.516,118.047759 28.01,119.401759 27.266,120.612759 C26.107,122.499759 24.377,124.011759 22.352,124.909759 C21.198,125.421759 19.956,125.731759 18.697,125.823759 C17.595,125.904759 16.482,125.817759 15.405,125.567759 C14.329,125.317759 13.292,124.904759 12.338,124.346759 C11.112,123.628759 10.029,122.672759 9.164,121.544759 C8.78,121.043759 8.439,120.509759 8.147,119.950759 C7.984,119.638759 7.761,119.153759 7.624,118.860759 C7.276,118.115759 6.939,117.365759 6.617,116.609759 C5.262,113.436759 4.141,110.163759 3.265,106.826759 C1.657,100.697759 0.88,94.3537593 0.962,88.0177593 C1.043,81.6787593 1.982,75.3547593 3.749,69.2657593 C4.527,66.5847593 5.465,63.9487593 6.555,61.3787593 C6.878,60.6167593 7.215,59.8597593 7.565,59.1097593 C7.754,58.7037593 7.941,58.2957593 8.149,57.8987593 C8.268,57.6697593 8.396,57.4447593 8.532,57.2247593 C8.6,57.1147593 8.672,57.0067593 8.742,56.8987593 L8.742,56.8977593 C8.832,56.7687593 8.92,56.6367593 9.013,56.5097593 C9.199,56.2547593 9.396,56.0077593 9.604,55.7707593 C10.33,54.9377593 11.182,54.2157593 12.122,53.6357593 C13.332,52.8897593 14.685,52.3827593 16.087,52.1487593 C17.488,51.9157593 18.933,51.9567593 20.319,52.2697593 C21.396,52.5137593 22.436,52.9197593 23.393,53.4727593 C24.213,53.9457593 24.972,54.5257593 25.644,55.1927593 C26.765,56.3047593 27.64,57.6587593 28.194,59.1367593 C28.749,60.6157593 28.979,62.2107593 28.866,63.7857593 C28.765,65.2037593 28.386,66.5977593 27.757,67.8717593 C27.617,68.1547593 27.465,68.4317593 27.301,68.7017593 C27.219,68.8367593 27.132,68.9677593 27.047,69.1017593 L27.478,68.4547593 L27.65,68.0967593 C27.552,68.3037593 27.456,68.5107593 27.36,68.7187593 C26.937,69.6507593 26.538,70.5917593 26.171,71.5477593 C25.365,73.6497593 24.705,75.8097593 24.199,78.0037593 C23.42,81.3787593 23.004,84.8367593 22.96,88.3007593 C22.914,91.8737593 23.264,95.4517593 24.002,98.9487593 C24.538,101.484759 25.277,103.977759 26.21,106.395759 C26.496,107.137759 26.801,107.872759 27.123,108.598759 C27.358,109.129759 27.606,109.654759 27.853,110.179759 L28.044,110.612759 C28.198,111.004759 28.243,111.100759 28.371,111.500759 C28.516,111.951759 28.631,112.411759 28.716,112.877759 C28.801,113.343759 28.856,113.814759 28.88,114.287759 C28.888,114.444759 28.89,114.602759 28.894,114.760759 L28.888,115.233759 L28.888,115.233759 Z M70.034,63.5627593 C70.003,63.9817593 70.003,64.0877593 69.945,64.5047593 C69.859,65.1297593 69.718,65.7477593 69.526,66.3487593 C69.43,66.6497593 69.321,66.9457593 69.199,67.2377593 C69.003,67.7087593 68.775,68.1657593 68.56,68.6287593 C68.418,68.9397593 68.418,68.9397593 68.278,69.2517593 C67.821,70.2927593 67.393,71.3447593 67.006,72.4137593 C66.278,74.4247593 65.683,76.4847593 65.227,78.5737593 C64.536,81.7407593 64.163,84.9747593 64.115,88.2157593 C64.062,91.7887593 64.406,95.3667593 65.137,98.8647593 C65.666,101.398759 66.399,103.889759 67.325,106.305759 C67.774,107.474759 68.271,108.622759 68.803,109.755759 L68.632,109.397759 L68.201,108.751759 L68.455,109.150759 C68.534,109.287759 68.616,109.422759 68.692,109.560759 C68.844,109.837759 68.983,110.120759 69.111,110.409759 C69.685,111.709759 70.003,113.118759 70.044,114.539759 C70.089,116.117759 69.79,117.701759 69.172,119.155759 C68.555,120.608759 67.622,121.923759 66.454,122.986759 C65.754,123.624759 64.972,124.170759 64.132,124.607759 C63.152,125.118759 62.096,125.480759 61.009,125.677759 C59.766,125.902759 58.486,125.911759 57.24,125.703759 C55.839,125.469759 54.486,124.962759 53.276,124.216759 C52.336,123.637759 51.484,122.915759 50.758,122.082759 C50.55,121.844759 50.353,121.597759 50.167,121.342759 C50.074,121.215759 49.986,121.084759 49.896,120.954759 C49.826,120.845759 49.754,120.737759 49.686,120.627759 C49.55,120.407759 49.422,120.182759 49.302,119.953759 C49.094,119.556759 48.907,119.147759 48.718,118.741759 C48.368,117.991759 48.032,117.236759 47.709,116.475759 C46.618,113.904759 45.68,111.267759 44.902,108.584759 C43.227,102.807759 42.294,96.8187593 42.135,90.8057593 C41.958,84.1477593 42.729,77.4677593 44.419,71.0257593 C45.295,67.6887593 46.416,64.4167593 47.77,61.2437593 C48.093,60.4877593 48.43,59.7377593 48.778,58.9927593 C49.015,58.4847593 49.247,57.9757593 49.528,57.4897593 C49.844,56.9437593 50.207,56.4247593 50.612,55.9407593 C51.524,54.8507593 52.647,53.9417593 53.903,53.2767593 C54.88,52.7607593 55.934,52.3917593 57.02,52.1877593 C58.261,51.9557593 59.541,51.9387593 60.788,52.1377593 C62.975,52.4877593 65.033,53.5077593 66.637,55.0357593 C67.437,55.7987593 68.12,56.6807593 68.658,57.6467593 C69.349,58.8877593 69.797,60.2617593 69.968,61.6727593 C70.006,61.9857593 70.031,62.3007593 70.042,62.6157593 C70.047,62.7737593 70.046,62.9317593 70.048,63.0897593 C70.043,63.2467593 70.039,63.4047593 70.034,63.5627593 L70.034,63.5627593 L70.034,63.5627593 Z M111.196,115.236759 C111.187,115.393759 111.181,115.551759 111.169,115.708759 C111.144,116.023759 111.106,116.336759 111.055,116.648759 C110.849,117.894759 110.427,119.102759 109.812,120.205759 C109.274,121.171759 108.591,122.053759 107.791,122.816759 C106.762,123.796759 105.544,124.573759 104.221,125.092759 C103.046,125.554759 101.792,125.810759 100.529,125.848759 C99.425,125.881759 98.317,125.746759 97.252,125.450759 C96.036,125.111759 94.879,124.562759 93.849,123.832759 C92.689,123.011759 91.692,121.965759 90.928,120.767759 C90.758,120.501759 90.6,120.228759 90.453,119.948759 C90.29,119.636759 90.069,119.153759 89.932,118.859759 C89.514,117.965759 89.112,117.063759 88.731,116.152759 C87.4,112.971759 86.302,109.693759 85.45,106.352759 C84.085,100.999759 83.353,95.4867593 83.271,89.9627593 C83.187,84.2827593 83.792,78.5927593 85.07,73.0567593 C85.881,69.5457593 86.96,66.0967593 88.298,62.7497593 C88.727,61.6757593 89.182,60.6127593 89.664,59.5617593 C89.878,59.0927593 90.099,58.6277593 90.322,58.1627593 L90.364,58.0797593 C90.437,57.9407593 90.508,57.7997593 90.584,57.6617593 C90.737,57.3857593 90.902,57.1157593 91.079,56.8547593 C91.873,55.6757593 92.895,54.6547593 94.076,53.8637593 C94.993,53.2487593 96.003,52.7727593 97.062,52.4567593 C98.121,52.1417593 99.227,51.9877593 100.332,52.0007593 C101.595,52.0147593 102.853,52.2497593 104.037,52.6897593 C105.22,53.1297593 106.326,53.7747593 107.292,54.5887593 C108.136,55.3007593 108.872,56.1407593 109.468,57.0707593 C110.234,58.2677593 110.764,59.6127593 111.021,61.0097593 C111.335,62.7187593 111.238,64.4967593 110.738,66.1607593 C110.602,66.6147593 110.437,67.0587593 110.243,67.4907593 C110.179,67.6347593 110.108,67.7757593 110.041,67.9187593 C110.028,67.9467593 110.095,67.8097593 110.082,67.8367593 C109.992,68.0277593 109.901,68.2167593 109.811,68.4077593 C109.716,68.6147593 109.621,68.8217593 109.526,69.0297593 C109.111,69.9637593 108.718,70.9067593 108.359,71.8637593 C107.568,73.9717593 106.923,76.1347593 106.432,78.3327593 C105.604,82.0377593 105.213,85.8407593 105.269,89.6367593 C105.317,92.8777593 105.69,96.1127593 106.381,99.2787593 C106.934,101.811759 107.691,104.299759 108.641,106.711759 C108.933,107.452759 109.243,108.187759 109.571,108.912759 C109.763,109.338759 109.963,109.759759 110.161,110.182759 L110.353,110.614759 C110.411,110.761759 110.471,110.907759 110.526,111.055759 C110.689,111.499759 110.824,111.954759 110.929,112.416759 C111.034,112.877759 111.109,113.346759 111.153,113.817759 C111.193,114.236759 111.189,114.342759 111.202,114.762759 L111.196,115.236759 L111.196,115.236759 Z"
           id="path4268"
           fill="#FF943C" />
        <path
           d="M28.932,63 C28.932,69.067 24.006,73.993 17.939,73.993 C11.871,73.993 6.945,69.067 6.945,63 C6.945,56.932 11.871,52.006 17.939,52.006 C24.006,52.006 28.932,56.932 28.932,63 Z M48.063,63 C48.063,56.912 53.005,51.97 59.092,51.97 C65.18,51.97 70.122,56.912 70.122,63 C70.122,69.087 65.18,74.03 59.092,74.03 C53.005,74.03 48.063,69.087 48.063,63 Z M111.202,63 C111.202,69.047 106.293,73.956 100.246,73.956 C94.199,73.956 89.29,69.047 89.29,63 C89.29,56.953 94.199,52.044 100.246,52.044 C106.293,52.044 111.202,56.953 111.202,63 L111.202,63 Z"
           id="path4270"
           fill="#FF5F3E" />
      </g>
    </g>
  </g>
</svg>
