<?xml version="1.0" encoding="UTF-8" standalone="no"?><!DOCTYPE svg PUBLIC "-//W3C//DTD SVG 1.1//EN" "http://www.w3.org/Graphics/SVG/1.1/DTD/svg11.dtd"><svg width="100%" height="100%" viewBox="0 0 500 200" version="1.1" xmlns="http://www.w3.org/2000/svg" xmlns:xlink="http://www.w3.org/1999/xlink" xml:space="preserve" style="fill-rule:evenodd;clip-rule:evenodd;stroke-linejoin:round;stroke-miterlimit:1.41421;"><g><rect x="197.89" y="74.952" width="12.384" height="48.024" style="fill-rule:nonzero;"/><path d="M242.458,123.84c11.592,0 17.856,-6.696 20.952,-12.888l-10.656,-5.04c-1.584,3.816 -5.688,6.984 -10.296,6.984c-7.848,0 -13.392,-6.048 -13.392,-13.896c0,-7.848 5.544,-13.896 13.392,-13.896c4.608,0 8.712,3.168 10.296,6.984l10.656,-5.04c-3.168,-6.336 -9.36,-12.888 -20.952,-12.888c-14.76,0 -25.992,10.008 -25.992,24.84c0,14.76 11.232,24.84 25.992,24.84Z" style="fill-rule:nonzero;"/><path d="M303.946,122.976l0,-10.8l-22.824,0l0,-8.136l22.32,0l0,-10.8l-22.32,0l0,-7.488l22.824,0l0,-10.8l-35.208,0l0,48.024l35.208,0Z" style="fill-rule:nonzero;"/><path d="M357.658,122.976c9.432,0 14.112,-6.048 14.112,-13.032c0,-6.048 -4.032,-10.944 -9.144,-11.736c4.536,-1.008 8.208,-5.04 8.208,-11.016c0,-6.048 -4.536,-12.24 -14.04,-12.24l-27.216,0l0,48.024l28.08,0Zm-3.672,-29.592l-12.024,0l0,-7.992l12.024,0c2.52,0 4.248,1.656 4.248,3.96c0,2.376 -1.728,4.032 -4.248,4.032Zm0.432,19.152l-12.456,0l0,-8.64l12.456,0c3.024,0 4.752,1.944 4.752,4.32c0,2.592 -1.8,4.32 -4.752,4.32Z" style="fill-rule:nonzero;"/><path d="M400.852,123.84c14.688,0 25.632,-10.224 25.632,-24.84c0,-14.616 -10.944,-24.84 -25.632,-24.84c-14.688,0 -25.704,10.224 -25.704,24.84c0,14.616 11.016,24.84 25.704,24.84Zm0,-10.944c-7.992,0 -13.104,-6.12 -13.104,-13.896c0,-7.848 5.112,-13.896 13.104,-13.896c7.92,0 13.032,6.048 13.032,13.896c0,7.776 -5.112,13.896 -13.032,13.896Z" style="fill-rule:nonzero;"/><path d="M473.11,122.976l-16.704,-24.696l15.624,-23.328l-14.688,0l-9.288,15.048l-9.432,-15.048l-14.616,0l15.696,23.4l-16.776,24.624l14.688,0l10.44,-16.128l10.44,16.128l14.616,0Z" style="fill-rule:nonzero;"/></g><path d="M86.89,74.635l0,-35.635c0,-5.519 4.481,-10 10,-10c5.519,0 10,4.481 10,10l0,35.858l25.354,-25.354c3.902,-3.902 10.239,-3.902 14.142,0c3.902,3.903 3.902,10.24 0,14.143l-41.047,41.046c-0.336,0.486 -0.721,0.948 -1.153,1.38c-1.98,1.98 -4.587,2.955 -7.184,2.926l-0.047,0.001l-0.006,0l-0.001,0l-0.027,0l-0.031,0l-0.002,0c0,0 -59.998,0 -59.998,0c-5.519,0 -10,-4.481 -10,-10c0,-5.519 4.481,-10 10,-10l36.081,0l-25.354,-25.353c-3.902,-3.903 -3.902,-10.24 0,-14.143c3.903,-3.902 10.24,-3.902 14.143,0l25.13,25.131Z" style="fill:#8fe3ff;"/><path d="M96.89,89l57,0c5.519,0 10,4.481 10,10c0,5.519 -4.481,10 -10,10l-32.635,0l25.131,25.131c3.902,3.902 3.902,10.239 0,14.142c-3.903,3.902 -10.24,3.902 -14.142,0l-25.354,-25.354l0,33.08c0,5.52 -4.481,10 -10,10c-5.519,0 -10,-4.48 -10,-10l0,-32.857l-25.13,25.131c-3.903,3.902 -10.24,3.902 -14.143,0c-3.902,-3.903 -3.902,-10.24 0,-14.142l42.194,-42.194c0.461,-0.461 0.956,-0.867 1.477,-1.219c1.598,-1.084 3.527,-1.718 5.602,-1.718c0,0 0,0 0,0Z" style="fill:#27beff;"/><circle cx="96.89" cy="99" r="10" style="fill:#008fd6;"/></svg>