<?xml version="1.0" encoding="UTF-8" standalone="no"?><!DOCTYPE svg PUBLIC "-//W3C//DTD SVG 1.1//EN" "http://www.w3.org/Graphics/SVG/1.1/DTD/svg11.dtd"><svg width="100%" height="100%" viewBox="0 0 550 150" version="1.1" xmlns="http://www.w3.org/2000/svg" xmlns:xlink="http://www.w3.org/1999/xlink" xml:space="preserve" style="fill-rule:evenodd;clip-rule:evenodd;stroke-linejoin:round;stroke-miterlimit:1.41421;"><g><path d="M199.068,98.976l0,-37.224l13.392,0l0,-10.8l-39.24,0l0,10.8l13.464,0l0,37.224l12.384,0Z" style="fill-rule:nonzero;"/><path d="M253.443,98.976l0,-10.8l-22.824,0l0,-8.136l22.32,0l0,-10.8l-22.32,0l0,-7.488l22.824,0l0,-10.8l-35.208,0l0,48.024l35.208,0Z" style="fill-rule:nonzero;"/><path d="M308.775,98.976l-18.144,-48.024l-15.552,0l-18.072,48.024l14.04,0l2.376,-6.912l18.936,0l2.376,6.912l14.04,0Zm-19.8,-17.712l-12.24,0l6.12,-18.072l6.12,18.072Z" style="fill-rule:nonzero;"/><path d="M366.331,98.976l0,-48.024l-17.208,0l-10.08,26.064l-10.008,-26.064l-17.208,0l0,48.024l12.384,0l0,-31.248l12.096,31.248l5.472,0l12.168,-31.248l0,31.248l12.384,0Z" style="fill-rule:nonzero;"/></g><g><path d="M423.315,98.976c9.432,0 14.112,-6.048 14.112,-13.032c0,-6.048 -4.032,-10.944 -9.144,-11.736c4.536,-1.008 8.208,-5.04 8.208,-11.016c0,-6.048 -4.536,-12.24 -14.04,-12.24l-27.216,0l0,48.024l28.08,0Zm-3.672,-29.592l-12.024,0l0,-7.992l12.024,0c2.52,0 4.248,1.656 4.248,3.96c0,2.376 -1.728,4.032 -4.248,4.032Zm0.432,19.152l-12.456,0l0,-8.64l12.456,0c3.024,0 4.752,1.944 4.752,4.32c0,2.592 -1.8,4.32 -4.752,4.32Z" style="fill-rule:nonzero;"/><path d="M466.509,99.84c14.688,0 25.632,-10.224 25.632,-24.84c0,-14.616 -10.944,-24.84 -25.632,-24.84c-14.688,0 -25.704,10.224 -25.704,24.84c0,14.616 11.016,24.84 25.704,24.84Zm0,-10.944c-7.992,0 -13.104,-6.12 -13.104,-13.896c0,-7.848 5.112,-13.896 13.104,-13.896c7.92,0 13.032,6.048 13.032,13.896c0,7.776 -5.112,13.896 -13.032,13.896Z" style="fill-rule:nonzero;"/><path d="M538.767,98.976l-16.704,-24.696l15.624,-23.328l-14.688,0l-9.288,15.048l-9.432,-15.048l-14.616,0l15.696,23.4l-16.776,24.624l14.688,0l10.44,-16.128l10.44,16.128l14.616,0Z" style="fill-rule:nonzero;"/></g><circle cx="75.235" cy="129" r="10" style="fill:#00b285;"/><path d="M75.665,11.009c0.154,0.01 0.308,0.017 0.461,0.031c0.307,0.027 0.613,0.069 0.916,0.125c1.212,0.222 2.381,0.671 3.431,1.316c0.918,0.565 1.744,1.279 2.435,2.106c0.593,0.71 1.086,1.501 1.462,2.345c0.564,1.267 0.861,2.65 0.865,4.037c0.004,1.232 -0.222,2.463 -0.664,3.614c-0.442,1.151 -1.097,2.217 -1.925,3.131c-0.724,0.799 -1.577,1.479 -2.517,2.007c-0.941,0.528 -1.966,0.901 -3.026,1.103c-0.453,0.086 -0.913,0.141 -1.375,0.164c-0.311,0.015 -0.484,0.011 -0.779,0.013c-0.249,0.001 -0.32,0.003 -0.569,0.007c-0.284,0.006 -0.567,0.015 -0.851,0.024c-1.675,0.069 -3.344,0.222 -5.001,0.476c-3.043,0.465 -6.037,1.254 -8.915,2.348c-3.153,1.2 -6.166,2.767 -8.961,4.657c-2.923,1.975 -5.609,4.301 -7.981,6.912c-3.937,4.332 -7.003,9.441 -8.949,14.963c-1.089,3.088 -1.827,6.298 -2.199,9.551c-0.128,1.115 -0.213,2.234 -0.255,3.355c-0.022,0.579 -0.031,1.158 -0.033,1.737l-0.012,0.462c-0.011,0.154 -0.019,0.308 -0.034,0.461c-0.029,0.307 -0.072,0.612 -0.13,0.914c-0.23,1.211 -0.686,2.377 -1.338,3.423c-0.489,0.784 -1.087,1.5 -1.772,2.12c-1.028,0.931 -2.249,1.644 -3.566,2.081c-1.316,0.436 -2.721,0.595 -4.102,0.462c-1.073,-0.102 -2.129,-0.38 -3.114,-0.819c-1.126,-0.501 -2.156,-1.212 -3.025,-2.086c-0.869,-0.874 -1.573,-1.909 -2.068,-3.039c-0.432,-0.987 -0.703,-2.045 -0.799,-3.119c-0.039,-0.434 -0.042,-0.868 -0.039,-1.304c0.002,-0.269 0.006,-0.553 0.011,-0.822c0.018,-0.955 0.057,-1.91 0.118,-2.864c0.362,-5.716 1.494,-11.379 3.365,-16.792c1.86,-5.383 4.447,-10.511 7.664,-15.21c3.253,-4.752 7.148,-9.063 11.546,-12.782c3.136,-2.652 6.526,-5.003 10.111,-7.008c3.4,-1.902 6.974,-3.491 10.664,-4.741c4.274,-1.448 8.702,-2.437 13.185,-2.951c1.618,-0.185 3.242,-0.308 4.869,-0.37c0.811,-0.031 1.623,-0.044 2.435,-0.047c0.154,0.003 0.308,0.006 0.461,0.009Z" style="fill:#d6ff31;fill-rule:nonzero;"/><path d="M129.728,65.012c0.41,0.03 0.513,0.03 0.92,0.088c0.915,0.131 1.811,0.389 2.655,0.765c1.408,0.627 2.664,1.582 3.645,2.771c0.982,1.189 1.68,2.603 2.029,4.105c0.139,0.6 0.222,1.213 0.249,1.829c0.018,0.417 0.009,0.837 0.004,1.255c-0.009,0.683 -0.028,1.367 -0.059,2.05c-0.131,2.963 -0.467,5.917 -1.008,8.834c-1.17,6.311 -3.301,12.439 -6.298,18.115c-2.876,5.446 -6.54,10.471 -10.843,14.877c-4.209,4.312 -9.025,8.027 -14.266,11c-3.958,2.245 -8.154,4.065 -12.498,5.418c-4.323,1.346 -8.79,2.226 -13.3,2.628c-1.356,0.12 -2.716,0.198 -4.076,0.232c-0.411,0.011 -0.822,0.017 -1.234,0.02c-0.273,0.001 -0.57,0.003 -0.841,-0.008c-0.308,-0.013 -0.615,-0.041 -0.92,-0.082c-1.374,-0.187 -2.706,-0.663 -3.887,-1.389c-0.919,-0.565 -1.745,-1.278 -2.437,-2.106c-0.691,-0.827 -1.247,-1.766 -1.64,-2.77c-0.337,-0.861 -0.554,-1.768 -0.642,-2.688c-0.148,-1.534 0.065,-3.097 0.617,-4.537c0.552,-1.439 1.439,-2.744 2.575,-3.786c1.479,-1.357 3.36,-2.248 5.347,-2.532c0.305,-0.044 0.612,-0.073 0.919,-0.089c0.311,-0.015 0.486,-0.011 0.781,-0.013c0.253,-0.002 0.318,-0.003 0.57,-0.007c0.284,-0.007 0.567,-0.015 0.851,-0.024c1.675,-0.07 3.344,-0.222 5.001,-0.476c3.044,-0.465 6.037,-1.254 8.915,-2.349c3.236,-1.231 6.324,-2.849 9.181,-4.805c3.057,-2.093 5.848,-4.571 8.291,-7.356c3.684,-4.201 6.561,-9.099 8.42,-14.37c1.088,-3.088 1.826,-6.299 2.199,-9.553c0.138,-1.208 0.226,-2.422 0.265,-3.637c0.015,-0.484 0.021,-0.969 0.022,-1.453l0.012,-0.462c0.03,-0.41 0.03,-0.513 0.088,-0.92c0.109,-0.762 0.306,-1.512 0.587,-2.229c0.561,-1.435 1.457,-2.734 2.599,-3.769c1.028,-0.931 2.249,-1.644 3.566,-2.081c0.731,-0.242 1.49,-0.4 2.257,-0.468c0.409,-0.037 0.512,-0.032 0.922,-0.04c0.154,0.004 0.308,0.008 0.462,0.012Z" style="fill:#d6ff31;fill-rule:nonzero;"/><path d="M21.665,65.009c0.41,0.027 0.513,0.027 0.92,0.083c0.763,0.104 1.514,0.296 2.233,0.572c1.295,0.497 2.482,1.265 3.466,2.243c1.093,1.086 1.928,2.425 2.423,3.885c0.247,0.73 0.409,1.487 0.482,2.254c0.058,0.602 0.045,1.207 0.054,1.81c0.007,0.283 0.015,0.567 0.025,0.85c0.069,1.675 0.221,3.344 0.475,5.001c0.452,2.955 1.208,5.863 2.254,8.663c1.15,3.079 2.649,6.027 4.457,8.772c1.989,3.021 4.35,5.796 7.012,8.244c4.306,3.962 9.396,7.057 14.904,9.037c3.165,1.138 6.462,1.907 9.805,2.289c1.114,0.128 2.233,0.213 3.354,0.256c0.58,0.022 1.16,0.03 1.74,0.032l0.462,0.012c0.153,0.011 0.307,0.019 0.46,0.034c0.307,0.029 0.612,0.073 0.915,0.131c1.059,0.201 2.084,0.575 3.025,1.103c1.209,0.679 2.272,1.611 3.105,2.721c0.739,0.986 1.293,2.108 1.627,3.295c0.249,0.89 0.375,1.814 0.372,2.738c-0.004,1.078 -0.183,2.155 -0.529,3.176c-0.396,1.167 -1.009,2.259 -1.799,3.204c-0.791,0.946 -1.757,1.743 -2.836,2.339c-1.213,0.67 -2.565,1.084 -3.947,1.207c-0.434,0.039 -0.867,0.042 -1.302,0.039c-0.411,-0.003 -0.823,-0.009 -1.234,-0.02c-1.495,-0.038 -2.99,-0.128 -4.479,-0.27c-4.635,-0.441 -9.219,-1.39 -13.647,-2.829c-4.445,-1.444 -8.728,-3.381 -12.751,-5.76c-5.073,-3.001 -9.728,-6.704 -13.795,-10.971c-3.895,-4.085 -7.249,-8.683 -9.945,-13.642c-3.253,-5.985 -5.537,-12.488 -6.736,-19.194c-0.474,-2.653 -0.78,-5.337 -0.917,-8.029c-0.041,-0.819 -0.067,-1.639 -0.078,-2.459c-0.005,-0.418 -0.014,-0.838 0.004,-1.255c0.014,-0.308 0.041,-0.615 0.083,-0.92c0.166,-1.222 0.56,-2.41 1.157,-3.489c0.671,-1.213 1.595,-2.283 2.7,-3.122c0.735,-0.559 1.549,-1.016 2.409,-1.352c0.861,-0.337 1.768,-0.553 2.688,-0.641c0.409,-0.04 0.512,-0.035 0.923,-0.046c0.154,0.003 0.308,0.006 0.461,0.009Z" style="fill:#21ea8f;fill-rule:nonzero;"/><path d="M75.647,11.001c0.822,0.008 1.643,0.026 2.464,0.063c1.49,0.066 2.977,0.184 4.459,0.353c4.743,0.543 9.423,1.62 13.926,3.207c5.611,1.977 10.939,4.747 15.787,8.196c4.588,3.263 8.743,7.131 12.327,11.473c2.452,2.971 4.636,6.161 6.516,9.523c1.902,3.4 3.491,6.974 4.741,10.664c1.839,5.429 2.936,11.105 3.263,16.828c0.054,0.955 0.088,1.911 0.1,2.867c0.005,0.418 0.014,0.838 -0.004,1.255c-0.013,0.308 -0.041,0.615 -0.083,0.92c-0.124,0.916 -0.377,1.814 -0.747,2.66c-0.371,0.847 -0.859,1.641 -1.448,2.354c-0.981,1.189 -2.237,2.144 -3.645,2.771c-1.408,0.627 -2.958,0.922 -4.498,0.856c-1.078,-0.047 -2.146,-0.269 -3.153,-0.655c-1.151,-0.442 -2.217,-1.097 -3.131,-1.925c-0.799,-0.724 -1.479,-1.577 -2.007,-2.518c-0.528,-0.94 -0.901,-1.965 -1.103,-3.025c-0.086,-0.453 -0.141,-0.913 -0.164,-1.375c-0.017,-0.354 -0.012,-0.709 -0.016,-1.063c-0.004,-0.284 -0.01,-0.568 -0.018,-0.852c-0.059,-1.678 -0.201,-3.351 -0.445,-5.012c-0.46,-3.138 -1.262,-6.224 -2.389,-9.188c-1.2,-3.154 -2.768,-6.166 -4.657,-8.962c-1.827,-2.704 -3.955,-5.204 -6.331,-7.442c-4.452,-4.195 -9.772,-7.454 -15.543,-9.487c-3.089,-1.089 -6.299,-1.827 -9.554,-2.2c-1.114,-0.127 -2.233,-0.212 -3.353,-0.255c-0.579,-0.022 -1.158,-0.03 -1.737,-0.032l-0.462,-0.012c-0.154,-0.011 -0.308,-0.019 -0.461,-0.034c-0.307,-0.029 -0.612,-0.073 -0.914,-0.13c-1.211,-0.23 -2.377,-0.686 -3.423,-1.338c-0.784,-0.489 -1.5,-1.087 -2.12,-1.772c-0.931,-1.028 -1.644,-2.249 -2.08,-3.566c-0.389,-1.17 -0.558,-2.41 -0.497,-3.641c0.053,-1.077 0.282,-2.144 0.675,-3.149c0.449,-1.148 1.111,-2.21 1.944,-3.118c0.833,-0.908 1.835,-1.66 2.94,-2.206c0.967,-0.477 2.01,-0.797 3.079,-0.942c0.305,-0.042 0.612,-0.069 0.92,-0.083c0.153,-0.006 0.308,-0.006 0.461,-0.009c0.127,0 0.254,0.001 0.381,0.001Z" style="fill:#21ea8f;fill-rule:nonzero;"/><circle cx="21.235" cy="75" r="10" style="fill:#00b285;"/><circle cx="129.235" cy="75" r="10" style="fill:#00b285;"/><circle cx="75.235" cy="21" r="10" style="fill:#00b285;"/><circle cx="75.235" cy="129" r="10" style="fill:#00b285;"/></svg>